<?xml version="1.0" standalone="no"?>
<!DOCTYPE svg PUBLIC "-//W3C//DTD SVG 20010904//EN" "http://www.w3.org/TR/2001/REC-SVG-20010904/DTD/svg10.dtd">
<!-- Created using Krita: https://krita.org -->
<svg xmlns="http://www.w3.org/2000/svg" 
    xmlns:xlink="http://www.w3.org/1999/xlink"
    xmlns:krita="http://krita.org/namespaces/svg/krita"
    xmlns:sodipodi="http://sodipodi.sourceforge.net/DTD/sodipodi-0.dtd"
    width="563.76pt"
    height="312.48pt"
    viewBox="0 0 563.76 312.48">
<defs/>
<path id="shape0" transform="translate(69.8400009100337, 186.480002429884)" fill="#000000" fill-rule="evenodd" stroke="#000000" stroke-opacity="0" stroke-width="0" stroke-linecap="square" stroke-linejoin="miter" stroke-miterlimit="2" d="M0.54 299.16L0 294.66L26.46 278.64L55.98 262.98L75.4492 254.097L95.04 246.42L127.62 236.16L130.14 118.08L72.72 118.08L72.54 108.9L130.14 108.36L130.68 82.44L148.68 82.26L149.22 108.54L198 108.72L198 117.9L148.86 118.08L147.06 230.94L181.98 225L221.76 220.32L256.5 218.52L259.38 72.72L180.9 72.72L181.08 56.7L259.38 56.88L259.92 0L279.54 0L280.26 1.08L282.24 56.7L366.84 56.7L367.2 73.44L283.32 72.72L289.08 218.34L331.02 221.22L374.58 227.16L415.26 235.62L413.46 119.88L362.16 119.7L362.88 109.44L413.55 109.17L413.91 81.36L427.41 81.63L428.67 108.9L491.13 109.35L491.13 119.52L429.21 119.52L433.53 239.49L459.387 247.033L495.789 260.27L529.9 274.653L563.629 291.963L563.756 295.399L530.536 282.926L503.298 273.634L483.697 267.016L450.732 258.234L434.313 254.924L434.44 270.452L416.112 270.834L415.985 250.088L408.093 248.179L385.565 243.342L358.709 239.014L333.89 235.323L306.143 232.905L288.578 232.523L288.706 312.2L256.886 312.455L256.249 232.269L228.884 233.414L187.391 237.869L157.608 243.724L146.407 246.397L146.153 266.379L127.443 266.889L127.061 250.597L110.769 253.906L97.0231 257.597L79.3312 263.07L64.5669 267.78L51.2025 273.634L32.2379 282.926L15.3098 291.453L0.54 299.16"/>
</svg>
