<?xml version="1.0" standalone="no"?>
<!DOCTYPE svg PUBLIC "-//W3C//DTD SVG 20010904//EN" "http://www.w3.org/TR/2001/REC-SVG-20010904/DTD/svg10.dtd">
<!-- Created using Krita: https://krita.org -->
<svg xmlns="http://www.w3.org/2000/svg" 
    xmlns:xlink="http://www.w3.org/1999/xlink"
    xmlns:krita="http://krita.org/namespaces/svg/krita"
    xmlns:sodipodi="http://sodipodi.sourceforge.net/DTD/sodipodi-0.dtd"
    width="216pt"
    height="216pt"
    viewBox="0 0 216 216">
<defs/>
<path id="shape0" transform="matrix(0.999999964841501 0 0 0.999999964841501 173.679368981046 96.4706239489648)" fill="#000000" fill-rule="evenodd" stroke="#000000" stroke-opacity="0" stroke-width="0" stroke-linecap="square" stroke-linejoin="miter" stroke-miterlimit="2" d="M0.206593 114.452L0 112.731L10.123 106.602L21.4168 100.611L28.8653 97.2122L36.3603 94.2751L48.8247 90.3499L49.7888 45.1749L27.8212 45.1749L27.7523 41.6629L49.7888 41.4563L49.9954 31.5398L56.8819 31.471L57.0885 41.5251L75.7507 41.594L75.7507 45.1061L56.9507 45.1749L56.2621 88.3528L69.6217 86.0803L84.8407 84.2898L98.1315 83.6012L99.2334 27.8212L69.2086 27.8212L69.2774 21.6922L99.2334 21.7611L99.44 0L106.946 0L107.222 0.413185L107.979 21.6922L140.345 21.6922L140.483 28.0966L108.392 27.8212L110.596 83.5323L126.641 84.6342L143.306 86.9067L158.87 90.1433L158.181 45.8636L138.555 45.7947L138.83 41.8695L158.216 41.7662L158.353 31.1266L163.518 31.2299L164 41.6629L187.896 41.835L187.896 45.7259L164.207 45.7259L165.86 91.6239L175.752 94.5097L189.679 99.5739L202.729 105.077L215.633 111.699L215.681 113.013L202.972 108.242L192.551 104.687L185.052 102.155L172.441 98.7949L166.159 97.5286L166.208 103.469L159.196 103.615L159.147 95.6784L156.128 94.9481L147.509 93.0976L137.235 91.4418L127.739 90.0297L117.124 89.1046L110.404 88.9584L110.453 119.441L98.2792 119.539L98.0355 88.8613L87.5662 89.2993L71.6919 91.0037L60.2975 93.2437L56.0123 94.2663L55.9151 101.911L48.757 102.106L48.6109 95.8732L42.3779 97.1391L37.119 98.5512L30.3505 100.645L24.7019 102.447L19.589 104.687L12.3335 108.242L5.85721 111.504L0.206593 114.452"/>
</svg>
